<svg xmlns="http://www.w3.org/2000/svg" xmlns:xlink="http://www.w3.org/1999/xlink" viewBox="0 0 707.2 184.96"><defs><style>.cls-1{fill:#ffa473;}.cls-2{fill:url(#linear-gradient);}</style><linearGradient id="linear-gradient" x1="385.76" y1="55.73" x2="708.25" y2="142.73" gradientUnits="userSpaceOnUse"><stop offset="0" stop-color="#7be19a"/><stop offset="1" stop-color="#36c488"/></linearGradient></defs><title>Logo</title><g id="Layer_2" data-name="Layer 2"><g id="Layer_1-2" data-name="Layer 1"><path class="cls-1" d="M61.83,169.84,0,15H29.41L63.8,105,98.39,23.25,133.44,105,167.29,15H197L133.39,170,98.3,81.78Z"/><path class="cls-1" d="M199.19,166.84,254.55,40.17H219.74V15h62.85l64.3,151.81H316.71l-11.56-28.53H240.94l-11.68,28.53Zm51.68-53.67H295L273.17,59.13Z"/><path class="cls-2" d="M304.14,0l81.71,185H707.2V56.66A56.66,56.66,0,0,0,650.54,0Zm110,170L346.89,15h30.22l37,92.83,37-92.83H481.3Zm210.8,0L527,73.77v93.07h-28V12l97.9,96.21V15h28Z"/></g></g></svg>